<svg width="12" height="18" viewBox="0 0 12 18" fill="none" xmlns="http://www.w3.org/2000/svg">
<g filter="url(#filter0_d_24_45)">
<path d="M7.33333 8.68292H6.66667V4.00739C6.66667 3.63815 6.36812 3.33946 6 3.33946H4.66667C4.29854 3.33946 4 3.63815 4 4.00739C4 4.37663 4.29854 4.65654 4.66667 4.65654H5.33333V8.66413H4.66667C4.29854 8.66413 4 8.96283 4 9.33207C4 9.70131 4.29854 10 4.66667 10H7.33333C7.70146 10 8 9.70131 8 9.33207C8 8.96283 7.70208 8.68292 7.33333 8.68292ZM6 2.00359C6.55229 2.00359 7 1.55503 7 1.00169C7 0.44835 6.55208 0 6 0C5.44792 0 5 0.448559 5 1.0019C5 1.55524 5.44771 2.00359 6 2.00359Z" fill="#0065FC"/>
</g>
<defs>
<filter id="filter0_d_24_45" x="0" y="0" width="12" height="18" filterUnits="userSpaceOnUse" color-interpolation-filters="sRGB">
<feFlood flood-opacity="0" result="BackgroundImageFix"/>
<feColorMatrix in="SourceAlpha" type="matrix" values="0 0 0 0 0 0 0 0 0 0 0 0 0 0 0 0 0 0 127 0" result="hardAlpha"/>
<feOffset dy="4"/>
<feGaussianBlur stdDeviation="2"/>
<feComposite in2="hardAlpha" operator="out"/>
<feColorMatrix type="matrix" values="0 0 0 0 0 0 0 0 0 0 0 0 0 0 0 0 0 0 0.25 0"/>
<feBlend mode="normal" in2="BackgroundImageFix" result="effect1_dropShadow_24_45"/>
<feBlend mode="normal" in="SourceGraphic" in2="effect1_dropShadow_24_45" result="shape"/>
</filter>
</defs>
</svg>
